<?xml version="1.0" encoding="UTF-8"?>
<svg xmlns="http://www.w3.org/2000/svg" xmlns:xlink="http://www.w3.org/1999/xlink" viewBox="0 0 100 100" width="100px" height="100px">
<g id="surface168923653">
<path style=" stroke:none;fill-rule:nonzero;fill:rgb(100%,100%,100%);fill-opacity:1;" d="M 19.96875 30.003906 C 18.296875 30.082031 16.238281 31.148438 15.058594 32.640625 C 13.980469 33.929688 13.054688 36.019531 13.289062 37.984375 C 15.175781 38.148438 17.058594 37 18.238281 35.546875 C 19.398438 34.054688 20.164062 32.050781 19.96875 30.003906 Z M 36 34 L 36 64 L 40.75 64 L 40.75 54 L 47.25 54 C 53.214844 54 57.5 49.851562 57.5 44 C 57.5 38.148438 53.292969 34 47.40625 34 Z M 19.46875 38 C 17.867188 38 16.539062 38.429688 15.566406 38.789062 C 14.59375 39.148438 13.855469 39.328125 14.078125 39.328125 C 14.273438 39.328125 13.59375 39.164062 12.722656 38.8125 C 11.851562 38.460938 10.679688 38.007812 9.246094 38.007812 C 5.996094 38.007812 3.070312 39.941406 1.484375 42.75 C -0.113281 45.515625 -0.253906 48.734375 0.265625 51.683594 C 0.785156 54.632812 1.957031 57.371094 3.378906 59.441406 C 4.011719 60.371094 4.746094 61.410156 5.730469 62.300781 C 6.714844 63.191406 8.066406 63.984375 9.6875 63.984375 L 9.761719 63.984375 C 11.039062 63.9375 12 63.511719 12.609375 63.261719 C 13.21875 63.011719 13.523438 62.882812 14.300781 62.882812 C 15.066406 62.882812 15.378906 63.019531 16.046875 63.292969 C 16.714844 63.566406 17.765625 64 19.128906 64 C 20.734375 64 22.085938 63.1875 23.003906 62.292969 C 23.921875 61.398438 24.570312 60.398438 25.167969 59.515625 L 25.171875 59.511719 C 26.769531 57.171875 27.425781 54.773438 27.425781 54.773438 L 27.921875 53.007812 L 26.203125 52.363281 C 26.203125 52.363281 23.660156 51.621094 23.636719 48.386719 L 23.636719 48.382812 C 23.625 47.09375 24.117188 46.21875 24.660156 45.558594 C 24.933594 45.230469 25.214844 44.972656 25.429688 44.800781 C 25.539062 44.714844 25.628906 44.648438 25.695312 44.601562 C 25.761719 44.554688 25.613281 44.679688 25.9375 44.433594 L 27.433594 43.289062 L 26.382812 41.726562 C 24.175781 38.449219 20.808594 38 19.46875 38 Z M 40.75 38 L 46.25 38 C 50.34375 38 52.75 40.210938 52.75 44 C 52.75 47.789062 50.363281 50 46.25 50 L 40.75 50 Z M 19.46875 42 C 19.734375 42 20.707031 42.285156 21.699219 42.886719 C 21.652344 42.9375 21.621094 42.957031 21.574219 43.011719 C 20.601562 44.1875 19.613281 46.042969 19.636719 48.421875 C 19.667969 52.03125 21.492188 53.800781 23.007812 54.875 C 22.761719 55.550781 22.648438 56.117188 21.867188 57.257812 L 21.863281 57.261719 C 21.25 58.164062 20.691406 58.964844 20.214844 59.429688 C 19.738281 59.894531 19.5 60 19.128906 60 C 18.515625 60 18.257812 59.875 17.554688 59.589844 C 16.851562 59.304688 15.742188 58.882812 14.300781 58.882812 C 12.894531 58.882812 11.796875 59.273438 11.097656 59.558594 C 10.421875 59.835938 10.164062 59.945312 9.660156 59.972656 C 9.3125 59.964844 8.953125 59.824219 8.417969 59.339844 C 7.871094 58.84375 7.265625 58.042969 6.683594 57.191406 L 6.683594 57.1875 L 6.679688 57.183594 C 5.625 55.652344 4.617188 53.320312 4.207031 50.992188 C 3.796875 48.664062 3.988281 46.398438 4.949219 44.742188 L 4.957031 44.730469 L 4.960938 44.722656 C 5.871094 43.109375 7.667969 42.007812 9.246094 42.007812 C 9.789062 42.007812 10.464844 42.214844 11.226562 42.523438 C 11.988281 42.832031 12.738281 43.328125 14.078125 43.328125 C 15.425781 43.328125 16.144531 42.84375 16.960938 42.539062 C 17.777344 42.234375 18.578125 42 19.46875 42 Z M 68.398438 42 C 63.421875 42 59.742188 44.789062 59.605469 48.628906 L 63.824219 48.628906 C 64.171875 46.804688 65.898438 45.609375 68.261719 45.609375 C 71.128906 45.609375 72.746094 46.921875 72.746094 49.335938 L 72.75 51 L 66.886719 51.308594 C 61.445312 51.628906 58.5 53.816406 58.5 57.617188 C 58.5 61.457031 61.539062 64.003906 65.898438 64.003906 C 68.84375 64.003906 71.574219 62.539062 72.8125 60.222656 L 72.910156 60.222656 L 72.910156 63.773438 L 77.246094 63.773438 L 77.246094 49.03125 C 77.25 44.753906 73.765625 42 68.398438 42 Z M 79 42 L 87.015625 63.898438 L 86.585938 65.230469 C 85.863281 67.488281 84.691406 68.355469 82.597656 68.355469 C 82.238281 68.355469 81.5625 68.320312 81.25 68.28125 L 81.25 71.890625 C 81.566406 71.960938 82.664062 72 83.007812 72 C 87.621094 72 89.792969 70.265625 91.691406 64.996094 L 100 42 L 95.191406 42 L 89.617188 59.769531 L 89.519531 59.769531 L 83.945312 42 Z M 72.75 54 L 72.734375 55.734375 C 72.734375 58.507812 70.332031 60.484375 67.15625 60.484375 C 64.660156 60.484375 63.070312 59.308594 63.070312 57.503906 C 63.070312 55.640625 64.601562 54.558594 67.527344 54.386719 Z M 72.75 54 "/>
</g>
</svg>
